Coordinates
version=1
nRows=13
nColumns=27
inDegrees=yes

Units are S.I. units (second, meters, Newtons, ...)
If the header above contains a line with 'inDegrees', this indicates whether rotational values are in degrees (yes) or radians (no).

endheader
time	pelvis_rotation	pelvis_tilt	pelvis_list	pelvis_tx	pelvis_ty	pelvis_tz	hip_flexion_r	hip_adduction_r	hip_rotation_r	knee_angle_r	knee_rotation_r	knee_adduction_r	knee_angle_r_beta	ankle_angle_r	subtalar_angle_r	mtp_angle_r	hip_flexion_l	hip_adduction_l	hip_rotation_l	knee_angle_l	knee_rotation_l	knee_adduction_l	knee_angle_l_beta	ankle_angle_l	subtalar_angle_l	mtp_angle_l
      4.26000000	     11.05620896	    -38.37922670	      6.03254545	     -0.08079882	      0.57058484	     -1.17619877	    118.89467426	    -41.23603491	     15.34329322	     91.82289572	      0.00000000	      0.00000000	      1.60261186	      7.69162706	      0.00000000	      0.00000000	    113.74699118	    -18.93189715	     12.44265651	     84.08189260	      0.00000000	      0.00000000	      1.46750587	      3.09862400	      0.00000000	      0.00000000
      4.26500000	     11.05345722	    -38.44037666	      6.05774071	     -0.08130481	      0.57174410	     -1.17645003	    118.79817362	    -41.20687592	     15.23690922	     91.60188734	      0.00000000	      0.00000000	      1.59875454	      7.59967762	      0.00000000	      0.00000000	    113.64364329	    -18.85949764	     12.38383999	     83.88943678	      0.00000000	      0.00000000	      1.46414688	      3.04954690	      0.00000000	      0.00000000
      4.27000000	     11.00208802	    -38.41673923	      6.06979229	     -0.08176320	      0.57292353	     -1.17668065	    118.60255712	    -41.14607336	     15.12208906	     91.37727594	      0.00000000	      0.00000000	      1.59483433	      7.50422640	      0.00000000	      0.00000000	    113.43955048	    -18.83719211	     12.30256606	     83.69498855	      0.00000000	      0.00000000	      1.46075312	      3.01916439	      0.00000000	      0.00000000
      4.27500000	     11.01410370	    -38.49373091	      6.09955571	     -0.08227307	      0.57406844	     -1.17690518	    118.52256009	    -41.12318240	     15.01560943	     91.16140066	      0.00000000	      0.00000000	      1.59106659	      7.42476559	      0.00000000	      0.00000000	    113.35595902	    -18.75735776	     12.24338797	     83.49899482	      0.00000000	      0.00000000	      1.45733238	      2.96033515	      0.00000000	      0.00000000
      4.28000000	     10.96818437	    -38.47960220	      6.10720445	     -0.08273845	      0.57522282	     -1.17711489	    118.33547930	    -41.06071515	     14.89942006	     90.93968200	      0.00000000	      0.00000000	      1.58719687	      7.35075091	      0.00000000	      0.00000000	    113.16775507	    -18.72985602	     12.17582055	     83.30603203	      0.00000000	      0.00000000	      1.45396455	      2.92347392	      0.00000000	      0.00000000
      4.28500000	     11.00482843	    -38.56334307	      6.13413964	     -0.08323638	      0.57631156	     -1.17731453	    118.26606352	    -41.06443390	     14.78669438	     90.73631656	      0.00000000	      0.00000000	      1.58364748	      7.26958508	      0.00000000	      0.00000000	    113.10798183	    -18.62794146	     12.13237654	     83.11675703	      0.00000000	      0.00000000	      1.45066107	      2.87529927	      0.00000000	      0.00000000
      4.29000000	     10.97173177	    -38.56162430	      6.13832841	     -0.08368252	      0.57745423	     -1.17750665	    118.08473437	    -41.01997845	     14.65910438	     90.51657207	      0.00000000	      0.00000000	      1.57981221	      7.19516474	      0.00000000	      0.00000000	    112.94005870	    -18.59189935	     12.06982106	     82.92099176	      0.00000000	      0.00000000	      1.44724433	      2.82019111	      0.00000000	      0.00000000
      4.29500000	     10.95767967	    -38.58199030	      6.14914506	     -0.08413991	      0.57853629	     -1.17767684	    117.93767827	    -40.97697346	     14.54716988	     90.31210591	      0.00000000	      0.00000000	      1.57624360	      7.14536450	      0.00000000	      0.00000000	    112.80769447	    -18.54324983	     12.01504735	     82.73105010	      0.00000000	      0.00000000	      1.44392922	      2.75315841	      0.00000000	      0.00000000
      4.30000000	     10.97073472	    -38.59864397	      6.16233255	     -0.08457559	      0.57960675	     -1.17784066	    117.79459882	    -40.97326210	     14.42851517	     90.10845800	      0.00000000	      0.00000000	      1.57268928	      7.05313411	      0.00000000	      0.00000000	    112.67502248	    -18.46815325	     11.96572701	     82.54257019	      0.00000000	      0.00000000	      1.44063962	      2.71453610	      0.00000000	      0.00000000
      4.30500000	     10.97802310	    -38.58965408	      6.17316945	     -0.08498791	      0.58063904	     -1.17798903	    117.62794171	    -40.96396124	     14.31543125	     89.91422767	      0.00000000	      0.00000000	      1.56929932	      6.98774514	      0.00000000	      0.00000000	    112.51974388	    -18.39816906	     11.91917233	     82.36066493	      0.00000000	      0.00000000	      1.43746478	      2.67261971	      0.00000000	      0.00000000
      4.31000000	     10.98604835	    -38.63182579	      6.18547974	     -0.08542250	      0.58168591	     -1.17811609	    117.50311917	    -40.93635493	     14.20305037	     89.71557087	      0.00000000	      0.00000000	      1.56583210	      6.92408802	      0.00000000	      0.00000000	    112.41674694	    -18.33753031	     11.87226857	     82.17087247	      0.00000000	      0.00000000	      1.43415227	      2.61957563	      0.00000000	      0.00000000
      4.31500000	     11.01216409	    -38.61828463	      6.19968690	     -0.08579987	      0.58267454	     -1.17823798	    117.33480135	    -40.94494966	     14.09275801	     89.53118327	      0.00000000	      0.00000000	      1.56261393	      6.85880877	      0.00000000	      0.00000000	    112.26355342	    -18.25570883	     11.82813588	     81.99055360	      0.00000000	      0.00000000	      1.43100512	      2.57526520	      0.00000000	      0.00000000
      4.32000000	     11.01601394	    -38.63797391	      6.20915154	     -0.08619968	      0.58367028	     -1.17834189	    117.19733330	    -40.91448500	     13.99056338	     89.34397404	      0.00000000	      0.00000000	      1.55934651	      6.80275432	      0.00000000	      0.00000000	    112.14406142	    -18.20351959	     11.78128974	     81.80777789	      0.00000000	      0.00000000	      1.42781508	      2.52792706	      0.00000000	      0.00000000
